<svg xmlns="http://www.w3.org/2000/svg" viewBox="0 0 51.67022 22.47272"><defs><style>.a{fill:#fff;}</style></defs><path className="a" d="M12.965,22.35171l-.01688.121H0a12.15189,12.15189,0,0,1,18.15105-8.71246A12.85563,12.85563,0,0,0,12.965,22.35171Z"/><path className="a" d="M17.20062,5.186A5.19467,5.19467,0,1,1,12.0146,0,5.1792,5.1792,0,0,1,17.20062,5.186Z"/><path className="a" d="M51.67022,22.47272H38.72249l-.01731-.121a12.85558,12.85558,0,0,0-5.186-8.59145,12.15186,12.15186,0,0,1,18.151,8.71246Z"/><path className="a" d="M44.85935,5.186A5.19467,5.19467,0,1,1,39.67334,0,5.1792,5.1792,0,0,1,44.85935,5.186Z"/><path className="a" d="M37.84085,22.47272H13.82937a12.136,12.136,0,0,1,24.01148,0Z"/><path className="a" d="M31.03,5.186A5.19467,5.19467,0,1,1,25.844,0,5.1792,5.1792,0,0,1,31.03,5.186Z"/></svg>