<svg xmlns="http://www.w3.org/2000/svg" viewBox="0 0 23.47457 22.47272"><defs><style>.a{fill:#fff;}</style></defs><path className="a" d="M23.01972,8.36969v.00013L19.89627,5.96916V1.10866a.43074.43074,0,0,0-.43134-.43048H16.0216a.431.431,0,0,0-.43109.43048V2.66005L12.4454.24124a1.16326,1.16326,0,0,0-1.41852,0L.455,8.36969a1.16571,1.16571,0,0,0-.21456,1.63278,1.14419,1.14419,0,0,0,.92443.43509l-.01009.0171H2.716V20.92047a1.55268,1.55268,0,0,0,1.55287,1.55225l14.93766-.001A1.55161,1.55161,0,0,0,20.758,20.91955V10.45466h1.544l.00812.00129a1.16373,1.16373,0,0,0,.70963-2.08626Z"/></svg>